<?xml version="1.0" encoding="utf-8"?>
<svg version="1.1" id="ahaSurvivor" xmlns="http://www.w3.org/2000/svg" xmlns:xlink="http://www.w3.org/1999/xlink" x="0px"
	 y="0px" viewBox="0 0 507 116" style="enable-background:new 0 0 507 116;" xml:space="preserve">
<style type="text/css">
	.st0{fill:#D20012;}
	.st1{fill:#FFFFFF;}
</style>
<g id="aha-heart-walk-survivor-image-banner" transform="translate(-153.25 -714)">
	<path id="Background" class="st0" d="M153.2,830v-54.2c38.5-36.1,137.7-61.8,254-61.8c115.3,0,213.8,25.3,253,60.9V830H153.2z"/>
	<g id="Im_a_Survivor" transform="translate(28.68 -15.393)">
		<path id="Survivor" class="st1" d="M297.1,820.5c-2.5,0-5.1-0.4-7.5-1.2c-2.3-0.9-4.3-2.1-6.1-3.8l3.9-5.5
			c1.3,1.3,2.8,2.3,4.4,3.1c1.7,0.8,3.6,1.2,5.5,1.2c1.5,0.1,3.1-0.3,4.4-1.1c1-0.7,1.6-1.9,1.5-3.1c0-0.8-0.2-1.5-0.7-2.1
			c-0.7-0.7-1.4-1.2-2.3-1.5c-1-0.5-2.6-1.1-4.8-1.8c-1.8-0.6-3.6-1.4-5.3-2.3c-1.4-0.8-2.6-1.9-3.4-3.3c-0.9-1.5-1.4-3.3-1.3-5
			c0-2,0.5-4,1.6-5.7c1.1-1.6,2.7-2.9,4.5-3.7c2.1-0.9,4.4-1.3,6.7-1.3c2.2,0,4.4,0.4,6.5,1.2c1.9,0.7,3.6,1.7,5,3.1l-3.8,5.3
			c-1-1-2.3-1.9-3.6-2.4c-1.4-0.6-2.8-0.9-4.3-0.9c-1.4-0.1-2.8,0.3-4.1,1c-1,0.6-1.5,1.7-1.5,2.8c0,0.7,0.2,1.4,0.7,2
			c0.7,0.7,1.4,1.2,2.3,1.6c1.1,0.5,2.7,1.1,4.8,1.8c1.9,0.6,3.7,1.4,5.5,2.4c1.4,0.8,2.5,1.9,3.4,3.2c0.9,1.6,1.3,3.4,1.2,5.2
			c0,2.1-0.5,4.1-1.7,5.9c-1.2,1.7-2.8,3-4.7,3.8C301.8,820.1,299.5,820.6,297.1,820.5z M331.4,820.5c-2.8,0.1-5.5-0.6-8-1.8
			c-2.2-1.1-4.1-2.9-5.3-5.1c-1.3-2.3-1.9-4.8-1.8-7.4v-22.4h7.1v21.9c-0.1,2.2,0.6,4.4,2.2,6c1.6,1.5,3.7,2.2,5.8,2.1
			c2.2,0.1,4.3-0.7,5.9-2.1c1.5-1.6,2.3-3.8,2.2-6v-21.9h7v22.4c0,2.6-0.6,5.2-1.8,7.4c-1.2,2.2-3.1,3.9-5.3,5.1
			C336.9,819.9,334.2,820.6,331.4,820.5L331.4,820.5z M383.3,813.9v6.1H382c-1.4,0-2.7-0.1-4.1-0.4c-1.3-0.4-2.4-1.1-3.4-2
			c-1.5-1.4-2.8-3-3.9-4.8l-4.5-6.9h-3.9V820h-7.1v-36.2H368c2.2-0.1,4.5,0.4,6.5,1.4c1.7,0.8,3.2,2.2,4.2,3.8
			c1,1.7,1.5,3.6,1.4,5.5c0,2.2-0.6,4.3-1.8,6.1c-1.3,1.9-3.1,3.3-5.2,4.2l3.7,5.2c0.8,1.1,1.7,2.2,2.7,3c0.9,0.6,2,0.9,3.1,0.9
			L383.3,813.9z M362.3,800.4h4.6c1.5,0.1,3-0.4,4.2-1.4c1.1-1,1.8-2.5,1.7-4.1c0.1-1.5-0.5-2.9-1.6-3.9c-1.2-0.9-2.7-1.4-4.2-1.3
			h-4.6V800.4z M417.9,783.8L404.8,820h-7.7l-13.1-36.2h7.7l9.3,27.9l9.3-27.9H417.9z M422.4,783.8h7.1V820h-7.1V783.8z
			 M467.7,783.8L454.7,820H447l-13.1-36.2h7.6l9.3,27.9l9.3-27.9H467.7z M488.3,820.5c-3.4,0-6.7-0.8-9.7-2.3
			c-2.8-1.5-5.2-3.8-6.8-6.6c-1.7-3-2.5-6.3-2.4-9.7c-0.1-3.4,0.8-6.7,2.5-9.7c1.6-2.8,4-5.1,6.8-6.6c3-1.6,6.3-2.4,9.7-2.3
			c3.4-0.1,6.7,0.8,9.7,2.3c2.8,1.5,5.2,3.8,6.8,6.6c1.7,2.9,2.5,6.2,2.5,9.6c0.1,3.4-0.8,6.7-2.5,9.7c-1.6,2.8-4,5.1-6.8,6.7
			C495.1,819.8,491.7,820.6,488.3,820.5z M488.3,813.7c2.1,0,4.1-0.5,5.9-1.5c1.7-1,3.2-2.5,4.1-4.2c1-1.9,1.5-4,1.5-6.1
			c0-2.1-0.5-4.2-1.5-6.1c-0.9-1.8-2.4-3.2-4.1-4.2c-1.8-1-3.9-1.6-5.9-1.5c-2.1,0-4.1,0.5-5.9,1.5c-1.7,1-3.2,2.5-4.1,4.2
			c-1,1.9-1.5,4-1.5,6.1c0,2.1,0.5,4.2,1.5,6.1c0.9,1.8,2.4,3.2,4.1,4.2C484.2,813.2,486.3,813.8,488.3,813.7z M542.4,813.9v6.1
			h-1.3c-1.4,0-2.7-0.1-4.1-0.4c-1.3-0.4-2.4-1.1-3.4-2c-1.5-1.4-2.8-3-3.8-4.8l-4.5-6.9h-3.9V820h-7.1v-36.2h12.8
			c2.2-0.1,4.5,0.4,6.5,1.4c1.7,0.8,3.2,2.2,4.2,3.8c1,1.7,1.5,3.6,1.4,5.5c0,2.2-0.6,4.3-1.8,6.1c-1.3,1.9-3.1,3.3-5.2,4.2l3.7,5.2
			c0.8,1.1,1.7,2.2,2.7,3c0.9,0.6,2,0.9,3.1,0.9L542.4,813.9z M521.3,800.4h4.6c1.5,0.1,3-0.4,4.2-1.4c1.1-1,1.8-2.5,1.7-4.1
			c0.1-1.5-0.5-2.9-1.6-3.9c-1.2-0.9-2.7-1.4-4.2-1.3h-4.6V800.4z"/>
		<path id="Im_a" class="st1" d="M288.9,755.1l4.2,0l0,21.3l-4.2,0L288.9,755.1z M298.4,755.1l4,0l-2.6,6.6l-3.2,0L298.4,755.1z
			 M322.8,760.9c1.5-0.1,3.1,0.5,4.1,1.6c1,1.4,1.5,3.1,1.4,4.8l0,9.1l-3.9,0l0-8.6c0.1-0.9-0.2-1.8-0.7-2.5c-0.5-0.6-1.3-1-2.1-0.9
			c-1.5,0-2.9,0.9-3.6,2.2l0,9.9l-3.8,0l0-8.9c0-0.8-0.2-1.6-0.7-2.3c-0.5-0.6-1.3-0.9-2.1-0.9c-1.5,0-2.9,0.9-3.7,2.2l0,9.8l-3.8,0
			l0-15.2l3.8,0l0,2c1.1-1.5,2.9-2.4,4.9-2.4c1.1,0,2.1,0.2,3,0.7c0.8,0.5,1.5,1.2,1.8,2.1c0.6-0.8,1.4-1.5,2.3-2.1
			C320.7,761.1,321.7,760.8,322.8,760.9z M354.2,771.5c0,0.5,0.1,0.9,0.5,1.2c0.4,0.3,1,0.4,1.5,0.4l0,3.4l-0.3,0
			c-2.9,0-4.5-0.8-4.9-2.3c-0.6,0.8-1.4,1.4-2.3,1.8c-0.9,0.4-2,0.6-3,0.6c-1.4,0-2.7-0.3-3.9-1c-1.1-0.7-2.1-1.6-2.7-2.8
			c-0.7-1.2-1-2.6-1-4c0-1.4,0.3-2.8,1-4.1c0.6-1.2,1.6-2.1,2.7-2.8c1.2-0.7,2.6-1,3.9-1c1.8-0.1,3.5,0.6,4.8,1.9l0-1.6l3.8,0
			L354.2,771.5z M350.4,766.6c-0.4-0.7-1-1.3-1.7-1.6c-0.8-0.4-1.6-0.6-2.5-0.6c-1.1,0-2.2,0.4-3,1.2c-0.8,0.8-1.2,2-1.2,3.1
			c-0.1,1.2,0.4,2.3,1.2,3.2c0.8,0.8,1.9,1.2,3,1.2c0.9,0,1.7-0.2,2.5-0.6c0.7-0.4,1.3-0.9,1.7-1.6L350.4,766.6z"/>
	</g>
	<g id="Logo" transform="translate(101 629.412)">
		<g id="Logo_Icon" transform="translate(141.25 105.189)">
			<g id="Icon">
				<g id="Flame" transform="translate(21.873)">
					<path id="Path_467" class="st1" d="M14.9,17.3c-2.9,1.9-4.4,5.4-3.5,8.9c3.4-5,13.8-0.5,17.2-12c-1.9,1.5-4.3,2.3-6.8,2.2
						C27.4,14,30.7,5.7,25.6,0c1.5,6.7-7,7.3-13.7,8.5C-0.6,10.9-2.7,22.5,3,28.4C2.4,21.4,8,17.2,14.9,17.3L14.9,17.3z"/>
				</g>
				<path id="Heart" class="st1" d="M49.8,28.1c-6.7-3.1-14.7-1-19,5c5.8-0.5,10.6,0.8,11.4,2.3l0,0c0.1,0.1,0.1,0.2,0.1,0.3
					l-0.6,5.7l0,0c0-0.1,0-0.2,0-0.3c-0.3-2.2-5.4-3.3-11.5-2.5s-10.7,3.2-10.4,5.4c0,0.1,0,0.2,0.1,0.3l-0.1,0l-2-5.3
					c-0.2-1.7,4.3-4.4,10.4-5.5c-4.2-6.2-12.4-8.5-19.2-5.3c-8.2,3.8-12.1,13.5-5.7,25c4.6,8.2,11.8,14.3,26.1,25.4
					c1.1-0.9,2.2-1.7,3.2-2.5c-1.8-10.7-4.3-21.2-7.6-31.5l0,0c-0.2-1.2,2.3-2.5,5.6-2.9s6,0.2,6.2,1.4c0,0-0.1,0.8-0.2,2.3l0,0
					c-0.4,9.1-0.2,18.1,0.5,27.2c9.3-7.5,14.6-12.7,18.3-19.3c0.5-0.9,0.9-1.8,1.3-2.7l0,0C61.2,40.1,57.3,31.6,49.8,28.1z"/>
			</g>
		</g>
		<g id="Rights" transform="translate(163.801 181.19)">
			<path id="Path_469" class="st1" d="M2.4,2.4c-0.5,0.5-1.4,0.5-2,0C0.1,2.1,0,1.8,0,1.4c0-0.4,0.1-0.8,0.4-1C0.7,0.1,1,0,1.4,0
				c0.8,0,1.4,0.6,1.4,1.4C2.8,1.8,2.7,2.1,2.4,2.4 M0.6,0.6C0.1,1,0.1,1.8,0.6,2.2c0.5,0.4,1.2,0.4,1.6,0C2.4,2,2.6,1.7,2.5,1.4
				c0-0.6-0.5-1.2-1.1-1.2C1.1,0.2,0.8,0.4,0.6,0.6 M0.8,2.2V0.6h0.8c0.1,0,0.2,0,0.3,0.1C2,0.8,2.1,0.9,2,1.1c0,0.1,0,0.2-0.1,0.3
				C1.9,1.4,1.8,1.5,1.7,1.5c0.1,0,0.2,0,0.2,0.1C2,1.6,2,1.8,2,1.9V2c0,0,0,0,0,0c0,0,0,0,0,0l0,0H1.7c0-0.1,0-0.1,0-0.2
				c0-0.1,0-0.1,0-0.2c0-0.1-0.1-0.1-0.1-0.1c0,0-0.1,0-0.1,0l-0.1,0H1.2v0.5L0.8,2.2z M1.5,0.9c-0.1,0-0.2,0-0.2,0H1.2v0.4h0.2
				c0.1,0,0.2,0,0.2-0.1c0.1,0,0.1-0.1,0.1-0.2C1.7,1,1.6,1,1.5,0.9"/>
		</g>
	</g>
</g>
</svg>
