<svg xmlns="http://www.w3.org/2000/svg" width="507" height="116" viewBox="0 0 507 116">
  <g id="aha-heart-walk-survivor-image-banner" 
  class="personal-survivor-banner" 
  transform="translate(-153.25 -714)">
    <path id="Path_466" data-name="Path 466" d="M-416,12381v-54.165c38.538-36.123,137.72-61.835,254-61.835,115.282,0,213.765,25.276,253,60.912V12381Z" transform="translate(569.25 -11551)" fill="#d20012"/>
    <g id="Group_181" data-name="Group 181" transform="translate(28.68 -15.393)">
      <path id="Path_471" data-name="Path 471" d="M15.1.51A21.2,21.2,0,0,1,7.624-.739a18.414,18.414,0,0,1-6.094-3.8l3.876-5.508a14.869,14.869,0,0,0,4.386,3.06,12.666,12.666,0,0,0,5.457,1.224,7.46,7.46,0,0,0,4.386-1.1,3.576,3.576,0,0,0,1.53-3.085,2.994,2.994,0,0,0-.739-2.091,7.056,7.056,0,0,0-2.3-1.53q-1.556-.714-4.769-1.836a29.189,29.189,0,0,1-5.3-2.321,10.063,10.063,0,0,1-3.443-3.264,9.083,9.083,0,0,1-1.3-5.024A10.05,10.05,0,0,1,4.922-31.7,10.315,10.315,0,0,1,9.435-35.42a16.345,16.345,0,0,1,6.732-1.3,18.081,18.081,0,0,1,6.528,1.173,15.065,15.065,0,0,1,5.049,3.06l-3.825,5.3a11.454,11.454,0,0,0-3.6-2.423,10.754,10.754,0,0,0-4.309-.892,7.39,7.39,0,0,0-4.08.969,3.149,3.149,0,0,0-1.479,2.805,2.915,2.915,0,0,0,.714,1.989,6.925,6.925,0,0,0,2.321,1.556q1.607.739,4.769,1.81A34.1,34.1,0,0,1,23.74-19a9.185,9.185,0,0,1,3.366,3.239,9.822,9.822,0,0,1,1.25,5.2,10.249,10.249,0,0,1-1.683,5.865,10.869,10.869,0,0,1-4.692,3.85A16.643,16.643,0,0,1,15.1.51Zm34.323,0a16.708,16.708,0,0,1-7.981-1.836A12.882,12.882,0,0,1,36.159-6.4a14.782,14.782,0,0,1-1.836-7.421V-36.21h7.14v21.879a7.993,7.993,0,0,0,2.167,5.992,8,8,0,0,0,5.84,2.116,8.088,8.088,0,0,0,5.865-2.116,7.94,7.94,0,0,0,2.193-5.992V-36.21h6.987v22.389A14.782,14.782,0,0,1,62.679-6.4,12.882,12.882,0,0,1,57.4-1.326,16.708,16.708,0,0,1,49.419.51Zm51.867-6.63V0h-1.275a16.26,16.26,0,0,1-4.055-.434,8.569,8.569,0,0,1-3.417-1.989,23.719,23.719,0,0,1-3.851-4.769L84.2-14.076H80.274V0H73.185V-36.21h12.8a14.279,14.279,0,0,1,6.5,1.377,9.816,9.816,0,0,1,4.157,3.8,10.591,10.591,0,0,1,1.428,5.483,10.9,10.9,0,0,1-1.811,6.12,11.265,11.265,0,0,1-5.176,4.182l3.723,5.2a14.4,14.4,0,0,0,2.7,3.034,4.918,4.918,0,0,0,3.06.893ZM80.274-19.635h4.59a6.212,6.212,0,0,0,4.157-1.4,5.015,5.015,0,0,0,1.658-4.055,4.8,4.8,0,0,0-1.606-3.927,6.315,6.315,0,0,0-4.157-1.326H80.274Zm55.59-16.575L122.808,0h-7.7L102.051-36.21h7.65l9.333,27.9,9.282-27.9Zm4.488,0h7.089V0h-7.089Zm45.39,0L172.686,0h-7.7L151.929-36.21h7.65l9.333,27.9,9.282-27.9ZM206.295.51a20.027,20.027,0,0,1-9.69-2.346,17.066,17.066,0,0,1-6.783-6.579,19,19,0,0,1-2.448-9.69,18.848,18.848,0,0,1,2.473-9.69,17.287,17.287,0,0,1,6.783-6.579,19.986,19.986,0,0,1,9.715-2.346,20.133,20.133,0,0,1,9.741,2.346A17.293,17.293,0,0,1,222.9-27.82a18.611,18.611,0,0,1,2.473,9.614,19.024,19.024,0,0,1-2.473,9.69,17.317,17.317,0,0,1-6.809,6.656A20.064,20.064,0,0,1,206.295.51Zm.051-6.783a11.584,11.584,0,0,0,5.941-1.53,10.8,10.8,0,0,0,4.105-4.233,12.433,12.433,0,0,0,1.479-6.069,12.433,12.433,0,0,0-1.479-6.069,10.8,10.8,0,0,0-4.105-4.233,11.584,11.584,0,0,0-5.941-1.53,11.584,11.584,0,0,0-5.941,1.53,10.8,10.8,0,0,0-4.105,4.233A12.433,12.433,0,0,0,194.82-18.1a12.433,12.433,0,0,0,1.479,6.069A10.8,10.8,0,0,0,200.4-7.8,11.584,11.584,0,0,0,206.346-6.273Zm54.009.153V0H259.08a16.26,16.26,0,0,1-4.055-.434,8.569,8.569,0,0,1-3.417-1.989,23.718,23.718,0,0,1-3.85-4.769l-4.488-6.885h-3.927V0h-7.089V-36.21h12.8a14.279,14.279,0,0,1,6.5,1.377,9.816,9.816,0,0,1,4.156,3.8,10.591,10.591,0,0,1,1.428,5.483,10.9,10.9,0,0,1-1.81,6.12,11.265,11.265,0,0,1-5.177,4.182l3.723,5.2a14.4,14.4,0,0,0,2.7,3.034,4.918,4.918,0,0,0,3.06.893ZM239.343-19.635h4.59a6.212,6.212,0,0,0,4.156-1.4,5.015,5.015,0,0,0,1.658-4.055,4.8,4.8,0,0,0-1.607-3.927,6.315,6.315,0,0,0-4.156-1.326h-4.641Z" transform="translate(282 820)" fill="#fff"/>
      <path id="Path_470" data-name="Path 470" d="M2.55-21.3H6.72V0H2.55Zm9.48,0h4.02l-2.58,6.63H10.29Zm24.45,5.79a5.062,5.062,0,0,1,4.095,1.65,7.2,7.2,0,0,1,1.4,4.77V0H38.1V-8.58a3.991,3.991,0,0,0-.72-2.55,2.53,2.53,0,0,0-2.1-.9,4.3,4.3,0,0,0-3.63,2.16V0H27.81V-8.88a3.4,3.4,0,0,0-.735-2.3,2.6,2.6,0,0,0-2.085-.855,4.313,4.313,0,0,0-3.66,2.19V0H17.49V-15.18h3.84v2.04a5.887,5.887,0,0,1,4.86-2.37,5.827,5.827,0,0,1,3.015.72,4.572,4.572,0,0,1,1.845,2.1,8.339,8.339,0,0,1,2.325-2.055A6.032,6.032,0,0,1,36.48-15.51ZM67.89-4.86a1.384,1.384,0,0,0,.5,1.2,2.521,2.521,0,0,0,1.485.36V.15h-.33q-4.29,0-4.92-2.31A6.355,6.355,0,0,1,62.3-.33,7.108,7.108,0,0,1,59.28.3,7.625,7.625,0,0,1,55.35-.72a7.048,7.048,0,0,1-2.7-2.82,8.47,8.47,0,0,1-.96-4.05,8.534,8.534,0,0,1,.96-4.08,6.947,6.947,0,0,1,2.7-2.8,7.714,7.714,0,0,1,3.93-1.005,6.458,6.458,0,0,1,4.77,1.86v-1.56h3.84ZM64.05-9.75a4.121,4.121,0,0,0-1.665-1.62,5.233,5.233,0,0,0-2.505-.57,4.045,4.045,0,0,0-3.03,1.2,4.28,4.28,0,0,0-1.17,3.12,4.393,4.393,0,0,0,1.155,3.18,4,4,0,0,0,3.015,1.2,5.275,5.275,0,0,0,2.49-.615A3.93,3.93,0,0,0,64.05-5.49Z" transform="translate(286.539 777.001) rotate(-1)" fill="#fff"/>
    </g>
    <g id="Group_186" data-name="Group 186" transform="translate(101 629.412)">
      <g id="Group_184" data-name="Group 184" transform="translate(141.25 105.189)">
        <g id="Group_183" data-name="Group 183">
          <g id="Group_182" data-name="Group 182" transform="translate(21.873)">
            <path id="Path_467" data-name="Path 467" d="M207.718,122.457a8.249,8.249,0,0,0-3.549,8.856c3.4-5.024,13.751-.49,17.193-12.025a10.263,10.263,0,0,1-6.8,2.2c5.64-2.335,8.868-10.631,3.819-16.3,1.488,6.686-7.017,7.266-13.694,8.516-12.543,2.362-14.587,13.98-8.9,19.907-.655-7.029,4.945-11.223,11.928-11.155Z" transform="translate(-192.776 -105.189)" fill="#fff"/>
          </g>
          <path id="Path_468" data-name="Path 468" d="M191.013,169.407a15.388,15.388,0,0,0-18.96,4.979c5.788-.5,10.6.8,11.364,2.323h0a.975.975,0,0,1,.1.313l-.6,5.682-.045.006a1.518,1.518,0,0,0,0-.337c-.288-2.193-5.418-3.326-11.458-2.532s-10.7,3.217-10.413,5.41a1.514,1.514,0,0,0,.09.326l-.109.014L159,180.248c-.217-1.652,4.271-4.417,10.363-5.505a15.387,15.387,0,0,0-19.209-5.335c-8.217,3.808-12.148,13.548-5.661,25.035,4.611,8.164,11.837,14.328,26.089,25.371q1.678-1.3,3.224-2.511a221.085,221.085,0,0,0-7.579-31.5h0c-.155-1.178,2.348-2.478,5.591-2.9s6,.182,6.152,1.36c0,0-.081.8-.169,2.292h0a201.019,201.019,0,0,0,.546,27.151c9.28-7.482,14.641-12.733,18.326-19.258a29.135,29.135,0,0,0,1.337-2.683l-.009-.009C202.488,181.452,198.578,172.913,191.013,169.407Z" transform="translate(-141.25 -141.324)" fill="#fff"/>
        </g>
      </g>
      <g id="Group_185" data-name="Group 185" transform="translate(163.801 181.19)">
        <path id="Path_469" data-name="Path 469" d="M196.747,286.622a1.394,1.394,0,0,1-2.375-1,1.331,1.331,0,0,1,.436-1.019,1.373,1.373,0,0,1,.961-.378,1.4,1.4,0,0,1,1.4,1.4,1.338,1.338,0,0,1-.42,1m-1.8-1.812a1.163,1.163,0,0,0,.006,1.634,1.152,1.152,0,0,0,1.966-.824,1.147,1.147,0,0,0-1.971-.809m.208,1.586v-1.547h.752a.772.772,0,0,1,.306.08.389.389,0,0,1,.206.369.34.34,0,0,1-.109.282.512.512,0,0,1-.268.1.535.535,0,0,1,.219.09.42.42,0,0,1,.136.346v.14a.4.4,0,0,0,0,.045.224.224,0,0,0,.011.045l.014.043h-.385a1.175,1.175,0,0,1-.027-.214.684.684,0,0,0-.025-.19.192.192,0,0,0-.114-.114.5.5,0,0,0-.138-.024l-.089-.006h-.087v.547Zm.74-1.243a.673.673,0,0,0-.235-.033h-.1v.449h.158a.366.366,0,0,0,.223-.056.209.209,0,0,0,.079-.183.18.18,0,0,0-.125-.177" transform="translate(-194.372 -284.222)" fill="#fff"/>
      </g>
    </g>
  </g>
</svg>
