<svg xmlns="http://www.w3.org/2000/svg" width="507" height="116" viewBox="0 0 507 116"><g transform="translate(-153.249 -714)"><path d="M-416,12381v-54.165c38.538-36.123,137.72-61.835,254-61.835,115.282,0,213.765,25.276,253,60.912V12381Z" transform="translate(569.25 -11551)" fill="#d20012"/><g transform="translate(28.68 -15.393)"><text transform="translate(282 820)" fill="#fff" font-size="51" font-family="LubDubBold, Lub Dub" letter-spacing="0.005em"><tspan x="0" y="0">SURVIVOR</tspan></text><text transform="translate(286.539 777.001) rotate(-1)" fill="#fff" font-size="30" font-family="LubDubBold, Lub Dub"><tspan x="0" y="0">I’m a</tspan></text></g><g transform="translate(101 629.412)"><g transform="translate(141.25 105.189)"><g transform="translate(0)"><g transform="translate(21.873)"><path d="M207.718,122.457a8.249,8.249,0,0,0-3.549,8.856c3.4-5.024,13.751-.49,17.193-12.025a10.263,10.263,0,0,1-6.8,2.2c5.64-2.335,8.868-10.631,3.819-16.3,1.488,6.686-7.017,7.266-13.694,8.516-12.543,2.362-14.587,13.98-8.9,19.907-.655-7.029,4.945-11.223,11.928-11.155Z" transform="translate(-192.776 -105.189)" fill="#fff"/></g><path d="M191.013,169.407a15.388,15.388,0,0,0-18.96,4.979c5.788-.5,10.6.8,11.364,2.323h0a.975.975,0,0,1,.1.313l-.6,5.682-.045.006a1.518,1.518,0,0,0,0-.337c-.288-2.193-5.418-3.326-11.458-2.532s-10.7,3.217-10.413,5.41a1.514,1.514,0,0,0,.09.326l-.109.014L159,180.248c-.217-1.652,4.271-4.417,10.363-5.505a15.387,15.387,0,0,0-19.209-5.335c-8.217,3.808-12.148,13.548-5.661,25.035,4.611,8.164,11.837,14.328,26.089,25.371q1.678-1.3,3.224-2.511a221.087,221.087,0,0,0-7.579-31.5h0c-.155-1.178,2.348-2.478,5.591-2.9s6,.182,6.152,1.36c0,0-.081.8-.169,2.292h0a201.015,201.015,0,0,0,.546,27.151c9.28-7.482,14.641-12.733,18.326-19.258a29.14,29.14,0,0,0,1.337-2.683l-.009-.009C202.488,181.452,198.578,172.913,191.013,169.407Z" transform="translate(-141.25 -141.324)" fill="#fff"/></g></g><g transform="translate(163.801 181.19)"><path d="M196.747,286.622a1.394,1.394,0,0,1-2.375-1,1.331,1.331,0,0,1,.436-1.019,1.373,1.373,0,0,1,.961-.378,1.4,1.4,0,0,1,1.4,1.4,1.338,1.338,0,0,1-.42,1m-1.8-1.812a1.163,1.163,0,0,0,.006,1.634,1.147,1.147,0,0,0,1.629,0,1.137,1.137,0,0,0,.337-.824,1.125,1.125,0,0,0-.335-.809,1.133,1.133,0,0,0-1.636,0m.208,1.586v-1.547h.433c.192,0,.3,0,.319,0a.773.773,0,0,1,.306.08.389.389,0,0,1,.206.369.34.34,0,0,1-.109.282.512.512,0,0,1-.268.1.536.536,0,0,1,.219.09.42.42,0,0,1,.136.346v.14a.407.407,0,0,0,0,.045.224.224,0,0,0,.011.045l.014.043h-.385a1.173,1.173,0,0,1-.027-.214.684.684,0,0,0-.025-.19.192.192,0,0,0-.114-.114.5.5,0,0,0-.138-.024l-.089-.006h-.087v.547Zm.74-1.243a.673.673,0,0,0-.235-.033h-.1v.449h.158a.366.366,0,0,0,.223-.056.209.209,0,0,0,.079-.183.18.18,0,0,0-.125-.177" transform="translate(-194.372 -284.222)" fill="#fff"/></g></g></g></svg>