<?xml version="1.0" standalone="no"?>
<!DOCTYPE svg PUBLIC "-//W3C//DTD SVG 20010904//EN"
 "http://www.w3.org/TR/2001/REC-SVG-20010904/DTD/svg10.dtd">
<svg version="1.0" xmlns="http://www.w3.org/2000/svg"
 width="507.000000pt" height="268.000000pt" viewBox="0 0 507.000000 268.000000"
 preserveAspectRatio="xMidYMid meet">

<g transform="translate(0.000000,268.000000) scale(0.100000,-0.100000)"
fill="#000000" stroke="none">
<path d="M0 2580 c0 -55 2 -100 5 -100 2 0 26 9 52 19 27 10 97 33 157 51 74
22 123 43 153 66 40 31 78 46 143 57 14 2 -95 5 -242 6 l-268 1 0 -100z"/>
<path d="M640 2669 c25 -5 112 -13 193 -18 82 -6 186 -17 233 -26 78 -15 90
-14 166 2 60 13 123 18 228 17 170 -1 258 -21 385 -84 83 -40 192 -120 202
-146 7 -18 -48 -78 -89 -100 -15 -8 -51 -19 -80 -25 -64 -14 -104 -33 -140
-66 l-26 -25 17 -42 c48 -111 59 -281 27 -405 -9 -35 -15 -65 -14 -66 2 -1 55
8 118 21 63 13 129 23 145 23 17 0 -21 -10 -84 -21 -63 -11 -130 -25 -150 -31
-36 -12 -36 -13 -44 -82 -5 -39 -7 -124 -5 -190 5 -174 33 -219 181 -289 449
-213 1031 -264 1475 -130 157 48 278 111 360 187 37 35 39 55 12 114 -15 34
-36 54 -102 97 -209 135 -460 234 -763 300 -60 14 -102 25 -91 25 33 2 247
-50 361 -86 230 -74 422 -170 595 -297 103 -76 130 -86 234 -86 90 0 270 40
296 66 13 12 15 47 12 213 -4 248 14 355 85 500 37 79 59 108 127 175 72 72
187 151 186 129 0 -4 -7 -53 -15 -108 -21 -146 -19 -202 15 -328 53 -202 63
-383 26 -472 -15 -35 -15 -35 11 -35 37 0 99 -32 158 -81 61 -51 92 -67 144
-75 l41 -7 0 732 0 731 -2237 -1 c-1292 -1 -2219 -5 -2193 -10z m1798 -926
c-53 -2 -143 -2 -200 0 -57 1 -13 3 97 3 110 0 156 -2 103 -3z m-325 -10 c-13
-2 -35 -2 -50 0 -16 2 -5 4 22 4 28 0 40 -2 28 -4z m571 -5 c50 -7 84 -13 76
-15 -8 -2 -62 3 -120 11 -58 8 -92 14 -76 15 16 0 70 -4 120 -11z m-396 -635
c-21 -2 -55 -2 -75 0 -21 2 -4 4 37 4 41 0 58 -2 38 -4z m-170 -10 c-21 -2
-55 -2 -75 0 -21 2 -4 4 37 4 41 0 58 -2 38 -4z m350 0 c-21 -2 -55 -2 -75 0
-21 2 -4 4 37 4 41 0 58 -2 38 -4z m319 -42 c132 -27 357 -90 349 -98 -2 -2
-55 12 -117 31 -120 36 -262 67 -419 91 -89 13 -91 14 -23 9 39 -3 134 -18
210 -33z"/>
<path d="M612 2569 c-12 -18 -21 -21 -58 -16 -54 6 -63 -11 -38 -72 15 -39 18
-41 58 -41 42 0 146 26 146 36 0 20 -74 114 -90 114 -3 0 -11 -10 -18 -21z"/>
<path d="M1 1188 l-1 -1188 1348 1 c778 1 1300 5 1236 10 -335 24 -677 115
-949 252 -270 135 -449 293 -561 493 -16 28 -49 84 -74 125 -52 87 -106 224
-127 324 -10 47 -13 112 -11 197 l3 126 -55 22 c-151 61 -281 155 -508 367
-172 162 -251 274 -287 406 -12 45 -14 -96 -14 -1135z"/>
<path d="M1170 2301 c0 -11 -15 -28 -37 -41 -36 -21 -38 -21 -66 -5 -27 16
-29 16 -42 -2 -51 -69 0 -172 93 -189 82 -16 162 47 162 125 0 48 -18 81 -59
108 -41 28 -51 29 -51 4z"/>
<path d="M1110 1828 c0 -20 1 -21 20 -3 11 10 20 20 20 22 0 1 -9 3 -20 3 -14
0 -20 -7 -20 -22z"/>
<path d="M710 1819 c0 -5 7 -9 16 -9 13 0 12 -5 -5 -34 -39 -63 -17 -116 49
-116 68 0 140 21 140 41 0 25 22 36 34 17 9 -15 14 -15 48 3 43 22 44 25 21
73 l-16 35 -144 -1 c-79 0 -143 -4 -143 -9z"/>
<path d="M5046 1189 c-57 -82 -272 -212 -406 -245 -74 -19 -170 -15 -215 9
-30 15 -30 15 -95 -45 -110 -101 -184 -165 -206 -176 -16 -9 -24 -27 -33 -74
-19 -112 -71 -200 -187 -315 -56 -57 -108 -103 -115 -103 -7 0 -52 -20 -99
-45 -199 -102 -471 -172 -740 -188 -30 -2 434 -4 1033 -5 l1087 -2 0 605 c0
333 -2 605 -4 605 -3 0 -11 -9 -20 -21z"/>
</g>
</svg>
