<svg xmlns="http://www.w3.org/2000/svg" width="94" height="73"><defs><clipPath id="a"><path d="M0 0h94v73H0z"/></clipPath></defs><g clip-path="url(#a)"><path d="M54.397 2.971C23.33-3.415 4.81 6.407 1.497 22.537s9.83 32.461 40.9 38.847q3.4.7 6.553 1.131l5.91 9.454 10.163-8.925c16.358-1.549 25.237-10.17 27.622-21.772 3.314-16.131-7.176-31.916-38.248-38.301z" fill="#08c0de"/><path d="M33.474 22.02a4.159 4.159 0 01-.159 1.304 6.43 6.43 0 01-1.467 2.946 5.3 5.3 0 01-2.58 1.576 7.158 7.158 0 01-6.257-1.475 5.875 5.875 0 01-1.77-2.678 6.291 6.291 0 01-.097-3.41 6.635 6.635 0 011.612-3.15 5.765 5.765 0 012.804-1.65 7.169 7.169 0 013.434-.003 7.6 7.6 0 014.187 2.463l-2.166 2.27a5.812 5.812 0 00-1.208-1.038 4.622 4.622 0 00-1.495-.64 3.1 3.1 0 00-2.326.295 3.235 3.235 0 00-1.407 2.223 3.079 3.079 0 00.288 2.47 2.853 2.853 0 001.807 1.232 2.994 2.994 0 001.696-.028 1.8 1.8 0 001.018-.811l-2.548-.589.623-2.699zm10.695 6.956l-.63 2.729-.493-.114a8.477 8.477 0 01-1.532-.479 2.95 2.95 0 01-1.088-.94 6.857 6.857 0 01-.954-1.995l-.708-2.201-.832-.192-1.015 4.396-3.225-.745 2.783-12.052 4.906 1.133a5.06 5.06 0 012.178 1.021 3.484 3.484 0 011.12 1.646 3.645 3.645 0 01.058 1.917 3.9 3.9 0 01-.976 1.827 3.943 3.943 0 01-1.86 1.09l.558 1.452a3.233 3.233 0 00.527.97 1.743 1.743 0 00.945.478zm-5.664-5.67l1.137.263a1.405 1.405 0 001.063-.112 1.306 1.306 0 00.58-.885 1.254 1.254 0 00-.14-1.025 1.427 1.427 0 00-.907-.559l-1.138-.262zm9.427-3.277l7.775 1.795-.647 2.8-4.55-1.05-.434 1.885 4.412 1.019-.623 2.699-4.413-1.019-.43 1.867 4.702 1.086-.647 2.8-7.927-1.83zm14.76 13.741l-4.092-.945-1.247 2.073-3.241-.748 7.112-11.053 3.547.82 1.546 13.05-3.41-.787zm-.234-2.7l-.354-4.122-2.128 3.55zm14.435-1.423l-3.004-.694-2.14 9.269-3.224-.745 2.14-9.268-3.006-.694.642-2.784 9.234 2.132zM27.065 41.88l.67-2.901 1.425.329q1.596.368 2.117-1.89l1.607-6.958 3.221.744-1.7 7.367a5.179 5.179 0 01-1.937 3.236 4.079 4.079 0 01-3.407.536zm14.05 3.346a7 7 0 01-3.066-1.513 5.787 5.787 0 01-1.77-2.682 6.5 6.5 0 01-.068-3.458 6.5 6.5 0 011.578-3.078 5.772 5.772 0 012.774-1.64 7.565 7.565 0 016.535 1.51 5.79 5.79 0 011.776 2.68 6.379 6.379 0 01.077 3.422 6.567 6.567 0 01-1.576 3.069 5.825 5.825 0 01-2.793 1.68 7.052 7.052 0 01-3.47.017zm.747-3.082a3.041 3.041 0 001.609-.04 2.762 2.762 0 001.297-.858 3.765 3.765 0 00.745-3.225 2.762 2.762 0 00-.79-1.344 3.234 3.234 0 00-3.037-.702 2.762 2.762 0 00-1.299.862 3.765 3.765 0 00-.744 3.225 2.762 2.762 0 00.789 1.344 3.041 3.041 0 001.427.745zm15.972.13a2.8 2.8 0 011.293 1.406 3.235 3.235 0 01.142 2.054 3.389 3.389 0 01-.848 1.619 3.153 3.153 0 01-1.564.891 4.449 4.449 0 01-2.077-.031l-5.567-1.286 2.783-12.055 5.025 1.16a4.257 4.257 0 012.556 1.475 2.841 2.841 0 01.486 2.464 3.184 3.184 0 01-.746 1.454 2.993 2.993 0 01-1.486.855zm-3.715-1.878l1.273.294a1.31 1.31 0 00.992-.11 1.146 1.146 0 00.535-.77.934.934 0 00-.169-.818 1.433 1.433 0 00-.852-.491l-1.275-.294zm.565 5.065a1.25 1.25 0 00.925-.094 1.079 1.079 0 00.502-.742 1.1 1.1 0 00-.118-.885 1.244 1.244 0 00-.798-.492l-1.647-.38-.51 2.206zm8.365-8.045l3.429.792-2.214 7.266-2.41-.557zm-1.121 12.757a1.755 1.755 0 111.33-.22 1.7 1.7 0 01-1.333.227z"/></g></svg>