<svg xmlns="http://www.w3.org/2000/svg" xmlns:xlink="http://www.w3.org/1999/xlink" width="94" height="73" viewBox="0 0 94 73"><defs><style>.a{clip-path:url(#b);}.b{fill:#08c0de;}</style><clipPath id="b"><rect width="94" height="73"/></clipPath></defs><g id="a" class="a"><g transform="translate(-2218.974 -519.44)"><path class="b" d="M2688.6,1118.03c-31.067-6.386-49.587,3.436-52.9,19.566s9.83,32.461,40.9,38.847q3.4.7,6.553,1.131l5.91,9.454,10.163-8.925c16.358-1.549,25.237-10.17,27.622-21.772C2730.162,1140.2,2719.672,1124.415,2688.6,1118.03Z" transform="translate(-415.229 -595.619)"/><path d="M35.87,10.406a4.159,4.159,0,0,1,.139,1.307,6.43,6.43,0,0,1-.767,3.2,5.3,5.3,0,0,1-2.16,2.117A7.158,7.158,0,0,1,26.654,17a5.875,5.875,0,0,1-2.326-2.212,6.291,6.291,0,0,1-.862-3.3,6.635,6.635,0,0,1,.862-3.432,5.765,5.765,0,0,1,2.361-2.239,7.169,7.169,0,0,1,3.345-.775A7.6,7.6,0,0,1,34.668,6.5l-1.6,2.7a5.812,5.812,0,0,0-1.411-.74,4.622,4.622,0,0,0-1.6-.287,3.1,3.1,0,0,0-2.2.81,3.235,3.235,0,0,0-.871,2.482,3.079,3.079,0,0,0,.836,2.343,2.853,2.853,0,0,0,2.038.793,2.994,2.994,0,0,0,1.646-.409,1.8,1.8,0,0,0,.81-1.019H29.7v-2.77Zm11.986,4.373v2.8H47.35a8.477,8.477,0,0,1-1.6-.122,2.95,2.95,0,0,1-1.272-.671A6.857,6.857,0,0,1,43.1,15.057l-1.185-1.986h-.854v4.512h-3.31V5.214h5.035a5.06,5.06,0,0,1,2.352.505A3.484,3.484,0,0,1,46.6,7.07a3.645,3.645,0,0,1,.488,1.855,3.9,3.9,0,0,1-.54,2,3.943,3.943,0,0,1-1.568,1.481l.871,1.289a3.233,3.233,0,0,0,.732.827,1.743,1.743,0,0,0,1.028.253Zm-6.794-4.251h1.167a1.405,1.405,0,0,0,1.01-.348,1.306,1.306,0,0,0,.366-.993,1.254,1.254,0,0,0-.366-.967,1.427,1.427,0,0,0-1.01-.34H41.061ZM49.51,5.214h7.979V8.089H52.82v1.934h4.529v2.77H52.82v1.916h4.826v2.874H49.51ZM66.983,15.283h-4.2l-.749,2.3H58.708L63.151,5.214h3.641l4.442,12.369h-3.5Zm-.836-2.578L64.875,8.768,63.6,12.705ZM79.892,8.071H76.809v9.512H73.5V8.071H70.415V5.214h9.477ZM34.093,31.2V28.223h1.463q1.638,0,1.638-2.317V18.764H40.5v7.561a5.179,5.179,0,0,1-1.158,3.589,4.079,4.079,0,0,1-3.2,1.289Zm14.442.1a7,7,0,0,1-3.327-.784A5.787,5.787,0,0,1,42.881,28.3a6.5,6.5,0,0,1-.845-3.354,6.5,6.5,0,0,1,.845-3.354,5.772,5.772,0,0,1,2.334-2.221,7.565,7.565,0,0,1,6.707,0,5.79,5.79,0,0,1,2.334,2.212A6.379,6.379,0,0,1,55.1,24.9a6.567,6.567,0,0,1-.845,3.345,5.825,5.825,0,0,1-2.343,2.265A7.052,7.052,0,0,1,48.535,31.307Zm.035-3.171a3.041,3.041,0,0,0,1.559-.4A2.762,2.762,0,0,0,51.2,26.6a3.765,3.765,0,0,0,0-3.31,2.762,2.762,0,0,0-1.071-1.132,3.234,3.234,0,0,0-3.118,0,2.762,2.762,0,0,0-1.071,1.132,3.765,3.765,0,0,0,0,3.31,2.762,2.762,0,0,0,1.071,1.132A3.041,3.041,0,0,0,48.569,28.136Zm15.592-3.467a2.8,2.8,0,0,1,1.577,1.08,3.235,3.235,0,0,1,.6,1.969,3.389,3.389,0,0,1-.462,1.768A3.153,3.153,0,0,1,64.553,30.7a4.449,4.449,0,0,1-2.03.436H56.809V18.764h5.157a4.257,4.257,0,0,1,2.822.862,2.841,2.841,0,0,1,1.028,2.291,3.184,3.184,0,0,1-.4,1.585A2.993,2.993,0,0,1,64.161,24.669Zm-4.042-.993h1.307a1.31,1.31,0,0,0,.941-.331,1.146,1.146,0,0,0,.348-.871.934.934,0,0,0-.348-.758,1.433,1.433,0,0,0-.941-.287H60.119Zm1.69,4.808a1.25,1.25,0,0,0,.88-.3,1.079,1.079,0,0,0,.322-.836,1.1,1.1,0,0,0-.314-.836,1.244,1.244,0,0,0-.888-.3h-1.69v2.265Zm6.341-9.721h3.519l-.523,7.578H68.673Zm1.777,12.682a1.755,1.755,0,1,1,1.246-.514A1.7,1.7,0,0,1,69.927,31.446Z" transform="translate(2219.838 523.251) rotate(13)"/></g></g></svg>