<svg xmlns="http://www.w3.org/2000/svg" xmlns:xlink="http://www.w3.org/1999/xlink" width="173" height="124" viewBox="0 0 173 124"><defs><style>.a{clip-path:url(#b);}.b{fill:#08c0de;}</style><clipPath id="b"><rect width="173" height="124"/></clipPath></defs><g id="a" class="a"><g transform="matrix(0.875, -0.485, 0.485, 0.875, -2211.151, 674.81)"><path class="b" d="M2735.306,1119.753c-58.236-11.97-92.952,6.44-99.168,36.677s18.426,60.848,76.661,72.818q6.371,1.309,12.284,2.121l11.079,17.721,19.051-16.73c30.663-2.9,47.307-19.063,51.777-40.812C2813.2,1161.312,2793.54,1131.722,2735.306,1119.753Z" transform="translate(-415.228 -595.619)"/><path d="M23.251,10.058a7.8,7.8,0,0,1,.261,2.449A12.054,12.054,0,0,1,22.075,18.5a9.941,9.941,0,0,1-4.049,3.968,12.565,12.565,0,0,1-6.041,1.4,12.635,12.635,0,0,1-6.009-1.453,11.013,11.013,0,0,1-4.359-4.147A11.792,11.792,0,0,1,0,12.082,12.438,12.438,0,0,1,1.616,5.649a10.807,10.807,0,0,1,4.425-4.2A13.438,13.438,0,0,1,12.311,0,14.247,14.247,0,0,1,21,2.743l-3,5.062a10.9,10.9,0,0,0-2.645-1.388,8.664,8.664,0,0,0-3-.539A5.806,5.806,0,0,0,8.229,7.4,6.064,6.064,0,0,0,6.6,12.05a5.771,5.771,0,0,0,1.567,4.392,5.348,5.348,0,0,0,3.821,1.486,5.613,5.613,0,0,0,3.086-.767,3.374,3.374,0,0,0,1.518-1.91h-4.9V10.058Zm22.467,8.2v5.258h-.947a15.891,15.891,0,0,1-3-.229,5.53,5.53,0,0,1-2.384-1.257,12.853,12.853,0,0,1-2.58-3.249l-2.221-3.723h-1.6v8.458h-6.2V.327h9.437a9.485,9.485,0,0,1,4.408.947A6.531,6.531,0,0,1,43.366,3.8a6.832,6.832,0,0,1,.914,3.478,7.308,7.308,0,0,1-1.012,3.755,7.391,7.391,0,0,1-2.939,2.776l1.633,2.416a6.06,6.06,0,0,0,1.372,1.551,3.267,3.267,0,0,0,1.927.474ZM32.982,10.286H35.17a2.635,2.635,0,0,0,1.894-.653,2.449,2.449,0,0,0,.686-1.861,2.351,2.351,0,0,0-.686-1.812,2.676,2.676,0,0,0-1.894-.637H32.982ZM48.82.327H63.776V5.715H55.024V9.339h8.49v5.192h-8.49v3.592H64.07v5.388H48.82ZM81.573,19.2H73.7l-1.4,4.311H66.062L74.389.327h6.825l8.327,23.185H82.977Zm-1.567-4.833-2.384-7.38-2.384,7.38Zm25.765-8.686h-5.78v17.83h-6.2V5.682h-5.78V.327h17.765ZM19.92,49.041V43.457h2.743q3.07,0,3.07-4.343V25.725h6.2V39.9a9.708,9.708,0,0,1-2.172,6.727,7.645,7.645,0,0,1-5.992,2.417Zm27.071.2a13.122,13.122,0,0,1-6.237-1.469A10.847,10.847,0,0,1,36.394,43.6a12.175,12.175,0,0,1-1.584-6.286,12.175,12.175,0,0,1,1.584-6.286,10.82,10.82,0,0,1,4.376-4.164,14.18,14.18,0,0,1,12.572,0,10.853,10.853,0,0,1,4.376,4.147,11.957,11.957,0,0,1,1.584,6.2,12.31,12.31,0,0,1-1.584,6.27,10.92,10.92,0,0,1-4.392,4.245A13.218,13.218,0,0,1,46.991,49.237Zm.065-5.943a5.7,5.7,0,0,0,2.923-.751,5.178,5.178,0,0,0,2.008-2.123,7.057,7.057,0,0,0,0-6.2,5.178,5.178,0,0,0-2.008-2.123,6.062,6.062,0,0,0-5.845,0,5.178,5.178,0,0,0-2.008,2.123,7.057,7.057,0,0,0,0,6.2,5.178,5.178,0,0,0,2.008,2.123A5.7,5.7,0,0,0,47.056,43.294Zm29.227-6.5a5.254,5.254,0,0,1,2.955,2.025,6.064,6.064,0,0,1,1.127,3.69,6.353,6.353,0,0,1-.865,3.315,5.91,5.91,0,0,1-2.482,2.27,8.34,8.34,0,0,1-3.8.816H62.5V25.725h9.666a7.98,7.98,0,0,1,5.29,1.616,5.325,5.325,0,0,1,1.927,4.294,5.969,5.969,0,0,1-.751,2.972A5.611,5.611,0,0,1,76.283,36.8Zm-7.576-1.861h2.449a2.455,2.455,0,0,0,1.763-.62,2.148,2.148,0,0,0,.653-1.633,1.751,1.751,0,0,0-.653-1.421,2.687,2.687,0,0,0-1.763-.539H68.707Zm3.168,9.013a2.344,2.344,0,0,0,1.649-.555,2.022,2.022,0,0,0,.6-1.567,2.052,2.052,0,0,0-.588-1.567,2.332,2.332,0,0,0-1.665-.555H68.707v4.245ZM83.761,25.725h6.6l-.98,14.205H84.741ZM87.092,49.5a3.289,3.289,0,1,1,2.335-.963A3.18,3.18,0,0,1,87.092,49.5Z" transform="translate(2260.455 544.809) rotate(13)"/></g></g></svg>