<svg xmlns="http://www.w3.org/2000/svg" width="173" height="124"><defs><clipPath id="a"><path d="M0 0h173v124H0z"/></clipPath></defs><g clip-path="url(#a)"><path d="M73.122 8.19C16.36 25.96-5.088 58.905 4.14 88.377s45.634 44.306 102.395 26.535q6.21-1.944 11.777-4.101l18.289 10.132 8.555-23.878c25.424-17.41 32.148-39.624 25.511-60.823C161.436 6.775 129.882-9.58 73.122 8.19z" fill="#08c0de"/><path d="M56.113 58.459a7.803 7.803 0 01.926 2.283 12.06 12.06 0 01.27 6.16 9.945 9.945 0 01-2.8 4.932 12.57 12.57 0 01-5.423 3.012 12.64 12.64 0 01-6.179.26 11.018 11.018 0 01-5.335-2.787 11.797 11.797 0 01-3.261-5.503 12.443 12.443 0 01-.22-6.632 10.812 10.812 0 013.098-5.26 13.444 13.444 0 015.63-3.121 14.253 14.253 0 019.112.242l-1.49 5.695a10.905 10.905 0 00-2.926-.606 8.668 8.668 0 00-3.033.31 5.808 5.808 0 00-3.548 2.6 6.067 6.067 0 00-.285 4.922 5.773 5.773 0 002.718 3.791 5.35 5.35 0 004.084.376 5.615 5.615 0 002.757-1.589 3.375 3.375 0 00.933-2.255l-4.712 1.35-1.432-4.993zm23.867 1.69l1.45 5.057-.911.26a15.898 15.898 0 01-2.948.608 5.532 5.532 0 01-2.64-.552 12.858 12.858 0 01-3.377-2.413l-3.162-2.968-1.539.442 2.333 8.133-5.963 1.71-6.394-22.3 9.075-2.602a9.489 9.489 0 014.5-.305 6.534 6.534 0 013.327 1.675 6.835 6.835 0 011.838 3.093 7.311 7.311 0 01.062 3.89 7.394 7.394 0 01-2.06 3.48l2.236 1.873a6.063 6.063 0 001.747 1.113 3.268 3.268 0 001.984-.075zm-14.446-4.154l2.104-.604a2.636 2.636 0 001.641-1.15 2.45 2.45 0 00.147-1.979 2.352 2.352 0 00-1.16-1.553 2.677 2.677 0 00-1.997-.09l-2.104.603zM78.019 42.05L92.4 37.926l1.486 5.182-8.416 2.413.999 3.485 8.164-2.34 1.432 4.992L87.901 54l.99 3.454 8.7-2.494 1.486 5.182-14.666 4.205zm36.701 9.119l-7.57 2.17-.159 4.532-5.998 1.72L102.608 35l6.563-1.882 14.401 20-6.312 1.81zm-2.84-4.216l-4.327-6.44-.257 7.755zm22.383-15.458l-5.558 1.594 4.916 17.147-5.962 1.71-4.916-17.146-5.559 1.594-1.476-5.15 17.084-4.899zM63.658 96.866l-1.54-5.37 2.639-.756q2.952-.847 1.754-5.023L62.82 72.84l5.962-1.71 3.909 13.632a9.712 9.712 0 01-.234 7.068 7.648 7.648 0 01-5.096 3.977zm26.09-7.272a13.128 13.128 0 01-6.404.307 10.852 10.852 0 01-5.343-2.81 12.18 12.18 0 01-3.257-5.608 12.18 12.18 0 01-.21-6.482 10.825 10.825 0 013.06-5.211 14.186 14.186 0 0112.09-3.467 10.858 10.858 0 015.352 2.782 11.962 11.962 0 013.233 5.525 12.315 12.315 0 01.206 6.467 10.925 10.925 0 01-3.053 5.293 13.224 13.224 0 01-5.676 3.2zM88.17 83.86a5.702 5.702 0 002.604-1.528 5.18 5.18 0 001.345-2.596 7.06 7.06 0 00-1.71-5.962 5.18 5.18 0 00-2.516-1.488 6.065 6.065 0 00-5.62 1.612 5.18 5.18 0 00-1.346 2.595 7.06 7.06 0 001.71 5.962 5.18 5.18 0 002.516 1.488 5.702 5.702 0 003.016-.087zm26.315-14.31a5.256 5.256 0 013.4 1.132 6.067 6.067 0 012.1 3.238 6.356 6.356 0 01.083 3.427 5.913 5.913 0 01-1.76 2.867 8.344 8.344 0 01-3.43 1.833l-10.307 2.955-6.394-22.3 9.295-2.666a7.983 7.983 0 015.533.096 5.327 5.327 0 013.037 3.598 5.972 5.972 0 01.097 3.065 5.613 5.613 0 01-1.654 2.757zm-7.8.3l2.356-.676a2.456 2.456 0 001.524-1.082 2.149 2.149 0 00.178-1.751 1.752 1.752 0 00-1.02-1.186 2.688 2.688 0 00-1.844-.033l-2.355.676zm5.533 7.793a2.345 2.345 0 001.432-.988 2.023 2.023 0 00.145-1.673 2.053 2.053 0 00-.997-1.344 2.333 2.333 0 00-1.755-.075l-3.042.872 1.17 4.083zm6.405-20.804l6.347-1.82 2.974 13.931-4.462 1.28zm9.759 21.946a3.29 3.29 0 111.98-1.57 3.181 3.181 0 01-1.98 1.57z"/></g></svg>